<svg width="47" height="35" viewBox="0 0 47 35" fill="none" xmlns="http://www.w3.org/2000/svg">
<path d="M23.694 34.255C23.2888 34.671 23.3033 34.2881 23.2599 34.0328C23.0621 32.9075 22.7196 31.8248 22.2228 30.7988C19.2613 24.6666 15.1855 19.6171 8.44718 17.1302C7.18827 16.6668 6.01619 15.9718 4.65116 15.8063C2.9485 15.5983 1.55936 16.2271 0.358332 17.3571C0.0930451 17.6077 -0.1433 17.9339 0.126811 18.246C0.445156 18.6195 0.753855 18.2838 0.995025 18.0568C1.48701 17.6029 2.03205 17.2956 2.70733 17.1774C4.27494 16.9032 5.51455 17.5604 6.59017 18.5344C9.00187 20.714 10.3669 23.4657 10.965 26.6003C11.1628 27.6405 11.3702 28.6807 11.7657 29.6735C12.3252 31.0872 13.2899 32.0234 14.9154 32.1274C15.8029 32.1841 16.6856 32.2456 17.5731 32.2929C19.705 32.4016 21.5765 33.1108 23.009 34.6852C23.5203 35.2479 23.7181 34.9689 23.9737 34.5292C25.8838 32.7373 28.2231 32.255 30.7747 32.2172C33.8086 32.1747 34.8746 31.2574 35.5837 28.3497C35.8248 27.3568 35.984 26.345 36.2589 25.3616C37.0355 22.5674 38.4005 20.1041 40.7109 18.227C42.2448 16.9789 44.4346 16.5675 45.9588 18.0616C46.1758 18.2791 46.5038 18.6337 46.8318 18.2365C47.1019 17.9055 46.8367 17.5935 46.5762 17.3476C44.9893 15.8489 43.1323 15.3335 41.0486 16.09C38.4439 17.0356 35.8779 18.1372 33.6012 19.688C28.8068 22.9598 25.8983 27.6263 23.9448 32.9217C23.776 33.3472 23.6216 33.7869 23.694 34.255ZM23.0332 18.3642C23.0332 15.5746 22.9415 13.083 23.0621 10.6008C23.1634 8.41645 22.1987 6.75219 20.8047 5.22977C19.8979 4.23689 18.6873 3.74991 17.385 3.47095C17.1052 3.40949 16.6759 3.28656 16.8544 3.83974C17.2017 4.91772 16.8303 5.92951 16.6132 6.95549C16.2418 8.70485 16.2273 10.4211 17.1582 12.0145C18.5956 14.4683 20.7131 16.3217 23.0332 18.3642ZM30.1766 3.47095C26.8195 3.70263 23.9014 6.74746 23.9014 9.8774C23.9014 12.2178 23.8917 14.5581 23.911 16.8985C23.9158 17.3145 23.7856 17.7637 24.0557 18.2034C25.7632 16.7897 27.2633 15.2862 28.6572 13.6693C30.3744 11.674 30.8808 9.42824 30.2876 6.90348C30.0319 5.80186 29.7087 4.70024 30.1766 3.47095ZM24.403 19.7778C28.6814 19.4563 30.9966 18.0332 32.926 14.6621C33.8569 13.0357 34.508 11.3053 34.836 9.46606C35.0868 8.07603 35.4438 6.73328 36.5001 5.67893C36.6641 5.51818 37.0066 5.33378 36.7943 5.04065C36.6352 4.82316 36.3216 4.81843 36.0467 4.81843C34.8409 4.83261 33.6929 5.1494 32.5208 5.3858C31.7008 5.55128 31.4355 5.83968 31.6526 6.67181C32.4243 9.68827 31.6333 12.3218 29.5978 14.681C28.0543 16.4682 26.3468 18.0852 24.403 19.7778ZM22.5653 19.8535C20.9205 18.3783 19.5024 17.0687 18.1712 15.6739C15.6148 12.9979 14.2546 10.0051 15.3205 6.28411C15.4025 5.99571 15.4894 5.69784 15.036 5.57491C13.6613 5.2014 12.2866 4.82789 10.8492 4.82316C10.5839 4.82316 10.2463 4.80425 10.1161 5.05483C9.96655 5.33851 10.2753 5.53236 10.4489 5.7073C11.3943 6.68127 11.8187 7.87745 12.031 9.1682C12.3783 11.2816 13.2175 13.2059 14.2304 15.0924C15.9428 18.3027 18.9333 19.3003 22.5653 19.8535ZM23.4624 7.08315C24.3596 5.19668 25.4545 3.731 27.2536 2.86577C26.4385 1.4521 24.8853 1.02185 23.7663 0.0809778C23.6409 -0.0277663 23.4817 -0.0277689 23.3515 0.0857032C22.3338 0.9462 20.9832 1.36226 20.1391 2.45443C19.951 2.70029 19.705 2.89887 20.1584 3.14C21.7212 3.97685 22.5942 5.39052 23.4624 7.08315ZM23.5107 28.9691C24.8323 26.3876 24.8612 24.0519 24.0702 21.6643C23.993 21.4279 23.8338 21.1442 23.5107 21.1773C23.2116 21.2104 23.0717 21.461 22.9897 21.721C22.2518 24.0803 22.2614 26.3876 23.5107 28.9691ZM7.12075 11.8915C6.55641 11.9719 6.10783 12.2272 6.07407 12.8655C6.04513 13.4896 6.38759 13.8867 7.01463 13.9293C7.69955 13.9766 8.12401 13.6031 8.14813 12.9364C8.17225 12.3076 7.74297 12.005 7.12075 11.8915ZM40.8605 12.9317C40.8412 12.3265 40.4649 11.953 39.8668 11.9246C39.1964 11.8915 38.7767 12.2745 38.7816 12.9601C38.7864 13.5983 39.2012 13.9435 39.809 13.9435C40.4119 13.9435 40.7978 13.5889 40.8605 12.9317Z" fill="#E9E7DF"/>
<path d="M23.9642 34.5292C23.7086 34.9689 23.5108 35.2478 22.9995 34.6852C21.5621 33.1061 19.6907 32.4016 17.5635 32.2928C16.676 32.2456 15.7934 32.1841 14.9058 32.1274C13.2804 32.0234 12.3157 31.0872 11.7562 29.6735C11.3655 28.6807 11.1581 27.6405 10.9555 26.6003C10.3574 23.4657 8.99235 20.714 6.58065 18.5344C5.50503 17.5651 4.26542 16.9032 2.69781 17.1774C2.02254 17.2956 1.47749 17.6077 0.985502 18.0568C0.739508 18.2838 0.435632 18.6195 0.117287 18.246C-0.148 17.9339 0.0835253 17.6077 0.348813 17.3571C1.54984 16.2271 2.93898 15.5983 4.64164 15.8063C6.00667 15.9718 7.17875 16.6621 8.43766 17.1301C15.176 19.6171 19.2566 24.6666 22.2133 30.7988C22.7101 31.8248 23.0526 32.9075 23.2503 34.0328C23.2937 34.2881 23.2793 34.671 23.6844 34.255C23.7857 34.3448 23.8774 34.4394 23.9642 34.5292Z" fill="url(#paint0_linear_601_103)"/>
<path d="M23.9643 34.5292C23.8726 34.4394 23.781 34.3448 23.6942 34.255C23.6218 33.7869 23.7762 33.3519 23.9305 32.9264C25.884 27.6311 28.7925 22.9645 33.587 19.6927C35.8636 18.1372 38.4297 17.0403 41.0343 16.0947C43.118 15.3382 44.975 15.8536 46.5619 17.3524C46.8176 17.5935 47.0828 17.9103 46.8176 18.2412C46.4944 18.6384 46.1664 18.2838 45.9445 18.0663C44.4203 16.5675 42.2305 16.9836 40.6967 18.2318C38.3862 20.1088 37.0212 22.5721 36.2447 25.3663C35.9697 26.3498 35.8105 27.3616 35.5694 28.3544C34.8603 31.2622 33.7944 32.1794 30.7604 32.2219C28.2137 32.255 25.8743 32.742 23.9643 34.5292Z" fill="url(#paint1_linear_601_103)"/>
<path d="M23.0335 18.3642C20.7134 16.3217 18.596 14.4684 17.1634 12.0192C16.2325 10.4259 16.247 8.70964 16.6184 6.96028C16.8354 5.9343 17.2068 4.91778 16.8595 3.84453C16.6811 3.28662 17.1104 3.41428 17.3901 3.47574C18.6924 3.75469 19.8983 4.24168 20.8099 5.23456C22.2039 6.75698 23.1686 8.42123 23.0673 10.6056C22.9419 13.083 23.0335 15.5747 23.0335 18.3642Z" fill="url(#paint2_linear_601_103)"/>
<path d="M30.1768 3.47095C29.7042 4.70023 30.0321 5.80658 30.2878 6.89875C30.8811 9.4235 30.3746 11.6693 28.6575 13.6645C27.2635 15.2815 25.7634 16.7897 24.0559 18.1987C23.7858 17.7637 23.9161 17.3098 23.9112 16.8937C23.8968 14.5534 23.9016 12.213 23.9016 9.87266C23.9064 6.74272 26.8198 3.69789 30.1768 3.47095Z" fill="url(#paint3_linear_601_103)"/>
<path d="M24.4033 19.778C26.3472 18.0853 28.0546 16.4684 29.5981 14.6812C31.6336 12.3219 32.4246 9.68841 31.6529 6.67194C31.4407 5.83982 31.7011 5.55141 32.5211 5.38593C33.6932 5.14953 34.8412 4.83275 36.047 4.81857C36.322 4.81384 36.6403 4.81857 36.7946 5.04078C37.0069 5.33865 36.6644 5.51832 36.5004 5.67907C35.4393 6.73341 35.0872 8.07616 34.8363 9.46619C34.5035 11.3054 33.8572 13.0358 32.9263 14.6623C31.0017 18.0286 28.6817 19.4565 24.4033 19.778Z" fill="url(#paint4_linear_601_103)"/>
<path d="M22.5655 19.8535C18.9335 19.3003 15.943 18.3027 14.2258 15.0924C13.2129 13.2059 12.3736 11.2816 12.0264 9.16821C11.8141 7.88219 11.3897 6.68128 10.4443 5.70731C10.2706 5.52764 9.96195 5.33852 10.1115 5.05484C10.2465 4.80426 10.5793 4.81845 10.8446 4.82317C12.2868 4.83263 13.6567 5.20141 15.0313 5.57492C15.4847 5.69785 15.3979 5.99572 15.3159 6.28412C14.25 10.0051 15.6053 12.9979 18.1666 15.6739C19.5026 17.0687 20.9207 18.3736 22.5655 19.8535Z" fill="url(#paint5_linear_601_103)"/>
<path d="M23.4627 7.08315C22.5945 5.39052 21.7166 3.97685 20.1586 3.14C19.7052 2.89887 19.9512 2.69556 20.1393 2.45443C20.9786 1.36226 22.334 0.9462 23.3517 0.0857032C23.4868 -0.0277689 23.6411 -0.0277663 23.7665 0.0809778C24.8904 1.02658 26.4435 1.4521 27.2539 2.86577C25.4547 3.731 24.3646 5.2014 23.4627 7.08315Z" fill="url(#paint6_linear_601_103)"/>
<path d="M23.5108 28.9692C22.2615 26.3829 22.2471 24.0804 22.985 21.7259C23.067 21.4658 23.2069 21.2105 23.506 21.1821C23.834 21.149 23.9883 21.428 24.0655 21.6691C24.8613 24.052 24.8324 26.3924 23.5108 28.9692Z" fill="url(#paint7_linear_601_103)"/>
<path d="M7.1208 11.8914C7.74302 12.0048 8.1723 12.3074 8.15301 12.9362C8.12889 13.6076 7.70443 13.9811 7.01951 13.9291C6.38764 13.8866 6.04518 13.4894 6.07894 12.8653C6.10788 12.227 6.55646 11.9717 7.1208 11.8914Z" fill="url(#paint8_linear_601_103)"/>
<path d="M40.8607 12.9317C40.798 13.5888 40.4121 13.9434 39.8092 13.9434C39.2062 13.9434 38.7866 13.5983 38.7818 12.96C38.777 12.2745 39.2014 11.8915 39.867 11.9246C40.4651 11.953 40.8414 12.3265 40.8607 12.9317Z" fill="url(#paint9_linear_601_103)"/>
<defs>
<linearGradient id="paint0_linear_601_103" x1="11.9821" y1="15.7668" x2="11.9821" y2="35" gradientUnits="userSpaceOnUse">
<stop stop-color="#2C4D32"/>
<stop offset="1" stop-color="#90AF51"/>
</linearGradient>
<linearGradient id="paint1_linear_601_103" x1="35.3017" y1="15.7493" x2="35.3017" y2="34.5292" gradientUnits="userSpaceOnUse">
<stop stop-color="#2C4D32"/>
<stop offset="1" stop-color="#90AF51"/>
</linearGradient>
<linearGradient id="paint2_linear_601_103" x1="19.7281" y1="3.41821" x2="19.7281" y2="18.3642" gradientUnits="userSpaceOnUse">
<stop stop-color="#AD3493"/>
<stop offset="1" stop-color="#EB60A3"/>
</linearGradient>
<linearGradient id="paint3_linear_601_103" x1="27.2049" y1="3.47095" x2="27.2049" y2="18.1987" gradientUnits="userSpaceOnUse">
<stop stop-color="#AD3493"/>
<stop offset="1" stop-color="#EB60A3"/>
</linearGradient>
<linearGradient id="paint4_linear_601_103" x1="30.6327" y1="4.81763" x2="30.6327" y2="19.778" gradientUnits="userSpaceOnUse">
<stop stop-color="#AD3493"/>
<stop offset="1" stop-color="#EB60A3"/>
</linearGradient>
<linearGradient id="paint5_linear_601_103" x1="16.3186" y1="4.82129" x2="16.3186" y2="19.8535" gradientUnits="userSpaceOnUse">
<stop stop-color="#AD3493"/>
<stop offset="1" stop-color="#EB60A3"/>
</linearGradient>
<linearGradient id="paint6_linear_601_103" x1="23.5776" y1="0" x2="23.5776" y2="7.08315" gradientUnits="userSpaceOnUse">
<stop stop-color="#AD3493"/>
<stop offset="1" stop-color="#EB60A3"/>
</linearGradient>
<linearGradient id="paint7_linear_601_103" x1="23.5431" y1="21.1794" x2="23.5431" y2="28.9692" gradientUnits="userSpaceOnUse">
<stop stop-color="#2C4D32"/>
<stop offset="1" stop-color="#90AF51"/>
</linearGradient>
<linearGradient id="paint8_linear_601_103" x1="7.11515" y1="11.8914" x2="7.11515" y2="13.9339" gradientUnits="userSpaceOnUse">
<stop stop-color="#AD3493"/>
<stop offset="1" stop-color="#EB60A3"/>
</linearGradient>
<linearGradient id="paint9_linear_601_103" x1="39.8212" y1="11.9226" x2="39.8212" y2="13.9434" gradientUnits="userSpaceOnUse">
<stop stop-color="#AD3493"/>
<stop offset="1" stop-color="#EB60A3"/>
</linearGradient>
</defs>
</svg>
