<svg width="22" height="12" viewBox="0 0 22 12" fill="none" xmlns="http://www.w3.org/2000/svg">
<path fill-rule="evenodd" clip-rule="evenodd" d="M0.5 6.00006C0.5 5.8343 0.579018 5.67533 0.71967 5.55812C0.860322 5.44091 1.05109 5.37506 1.25 5.37506H18.9395L14.219 1.44256C14.0782 1.3252 13.9991 1.16603 13.9991 1.00006C13.9991 0.834087 14.0782 0.674915 14.219 0.557557C14.3598 0.440199 14.5508 0.374268 14.75 0.374268C14.9492 0.374268 15.1402 0.440199 15.281 0.557557L21.281 5.55756C21.3508 5.61561 21.4063 5.68458 21.4441 5.76052C21.4819 5.83645 21.5013 5.91785 21.5013 6.00006C21.5013 6.08227 21.4819 6.16367 21.4441 6.2396C21.4063 6.31553 21.3508 6.3845 21.281 6.44256L15.281 11.4426C15.1402 11.5599 14.9492 11.6258 14.75 11.6258C14.5508 11.6258 14.3598 11.5599 14.219 11.4426C14.0782 11.3252 13.9991 11.166 13.9991 11.0001C13.9991 10.8341 14.0782 10.6749 14.219 10.5576L18.9395 6.62506H1.25C1.05109 6.62506 0.860322 6.55921 0.71967 6.442C0.579018 6.32479 0.5 6.16582 0.5 6.00006Z" fill="white"/>
</svg>
