<svg width="23" height="24" viewBox="0 0 23 24" fill="none" xmlns="http://www.w3.org/2000/svg">
<path d="M0.705322 1.72349C0.705322 1.53161 0.781458 1.34758 0.916979 1.2119C1.0525 1.07622 1.23631 1 1.42796 1H3.59589C3.75708 1.00004 3.91363 1.05405 4.04065 1.15341C4.16766 1.25278 4.25784 1.39182 4.29685 1.5484L4.88219 3.89395H21.6619C21.768 3.89405 21.8728 3.91754 21.9688 3.96275C22.0649 4.00797 22.1497 4.0738 22.2175 4.15557C22.2852 4.23733 22.3341 4.33303 22.3608 4.43586C22.3874 4.5387 22.3911 4.64614 22.3716 4.75056L20.2036 16.3263C20.1726 16.4921 20.0848 16.6419 19.9552 16.7497C19.8256 16.8575 19.6625 16.9166 19.494 16.9167H6.48645C6.31798 16.9166 6.15486 16.8575 6.02528 16.7497C5.8957 16.6419 5.80782 16.4921 5.77682 16.3263L3.61034 4.77226L3.03223 2.44697H1.42796C1.23631 2.44697 1.0525 2.37075 0.916979 2.23507C0.781458 2.09939 0.705322 1.91537 0.705322 1.72349ZM5.18859 5.34092L7.08625 15.4697H18.8942L20.7919 5.34092H5.18859ZM7.93174 16.9167C7.16511 16.9167 6.42988 17.2216 5.8878 17.7643C5.34571 18.307 5.04117 19.0431 5.04117 19.8107C5.04117 20.5782 5.34571 21.3143 5.8878 21.857C6.42988 22.3997 7.16511 22.7046 7.93174 22.7046C8.69836 22.7046 9.43359 22.3997 9.97568 21.857C10.5178 21.3143 10.8223 20.5782 10.8223 19.8107C10.8223 19.0431 10.5178 18.307 9.97568 17.7643C9.43359 17.2216 8.69836 16.9167 7.93174 16.9167ZM18.0487 16.9167C17.2821 16.9167 16.5469 17.2216 16.0048 17.7643C15.4627 18.307 15.1582 19.0431 15.1582 19.8107C15.1582 20.5782 15.4627 21.3143 16.0048 21.857C16.5469 22.3997 17.2821 22.7046 18.0487 22.7046C18.8153 22.7046 19.5506 22.3997 20.0927 21.857C20.6347 21.3143 20.9393 20.5782 20.9393 19.8107C20.9393 19.0431 20.6347 18.307 20.0927 17.7643C19.5506 17.2216 18.8153 16.9167 18.0487 16.9167ZM7.93174 18.3637C8.31505 18.3637 8.68266 18.5161 8.95371 18.7875C9.22475 19.0589 9.37702 19.4269 9.37702 19.8107C9.37702 20.1944 9.22475 20.5625 8.95371 20.8338C8.68266 21.1052 8.31505 21.2576 7.93174 21.2576C7.54842 21.2576 7.18081 21.1052 6.90977 20.8338C6.63873 20.5625 6.48645 20.1944 6.48645 19.8107C6.48645 19.4269 6.63873 19.0589 6.90977 18.7875C7.18081 18.5161 7.54842 18.3637 7.93174 18.3637ZM18.0487 18.3637C18.432 18.3637 18.7996 18.5161 19.0707 18.7875C19.3417 19.0589 19.494 19.4269 19.494 19.8107C19.494 20.1944 19.3417 20.5625 19.0707 20.8338C18.7996 21.1052 18.432 21.2576 18.0487 21.2576C17.6654 21.2576 17.2978 21.1052 17.0268 20.8338C16.7557 20.5625 16.6034 20.1944 16.6034 19.8107C16.6034 19.4269 16.7557 19.0589 17.0268 18.7875C17.2978 18.5161 17.6654 18.3637 18.0487 18.3637Z" fill="white" stroke="white"/>
</svg>
