<svg width="41" height="41" viewBox="0 0 41 41" fill="none" xmlns="http://www.w3.org/2000/svg">
<path d="M9.36429 4.14878C9.21302 3.95979 9.02208 3.80422 8.80415 3.69241C8.58622 3.5806 8.34629 3.51511 8.1003 3.50028C7.8543 3.48545 7.60787 3.52162 7.37738 3.6064C7.14689 3.69118 6.9376 3.82262 6.76343 3.99199L4.11389 6.56783C2.87624 7.77237 2.42013 9.47715 2.9608 10.9729C5.20481 17.1638 8.85512 22.7846 13.641 27.4184C18.412 32.0665 24.1992 35.6119 30.5734 37.7914C32.1135 38.3165 33.8687 37.8735 35.1089 36.6715L37.7585 34.0981C37.9328 33.929 38.0682 33.7257 38.1555 33.5019C38.2428 33.278 38.28 33.0386 38.2647 32.7997C38.2495 32.5608 38.182 32.3278 38.0669 32.1161C37.9518 31.9044 37.7916 31.719 37.597 31.5721L31.6855 27.1073C31.4776 26.9507 31.2358 26.842 30.9784 26.7894C30.7209 26.7368 30.4546 26.7417 30.1993 26.8037L24.5876 28.165C23.8386 28.3468 23.0538 28.3372 22.3097 28.137C21.5657 27.9368 20.8877 27.5529 20.3417 27.0227L14.0484 20.9079C13.502 20.3779 13.1063 19.7195 12.8997 18.9968C12.6931 18.2741 12.6828 17.5118 12.8697 16.7841L14.2739 11.3337C14.3377 11.0859 14.3427 10.8271 14.2886 10.5771C14.2344 10.327 14.1225 10.0922 13.9613 9.89028L9.36429 4.14878ZM4.8288 2.11549C5.27722 1.67984 5.81592 1.34182 6.40915 1.12389C7.00238 0.90595 7.63656 0.813083 8.26958 0.851449C8.90259 0.889816 9.51996 1.05854 10.0807 1.34642C10.6414 1.63429 11.1327 2.03474 11.5218 2.52115L16.1188 8.26016C16.9619 9.31289 17.2591 10.6842 16.926 11.9783L15.5243 17.4286C15.4519 17.7109 15.4558 18.0066 15.5357 18.287C15.6156 18.5674 15.7688 18.823 15.9805 19.0289L22.2763 25.1437C22.4886 25.3496 22.7521 25.4987 23.0413 25.5763C23.3305 25.654 23.6355 25.6575 23.9265 25.5867L29.5357 24.2254C30.1932 24.0657 30.8795 24.0533 31.5428 24.1891C32.206 24.3249 32.8287 24.6054 33.3639 25.0093L39.2729 29.4741C41.3971 31.0793 41.5918 34.128 39.6905 35.9722L37.041 38.5455C35.1448 40.3872 32.3108 41.196 29.6689 40.2926C22.9071 37.9819 16.7678 34.2222 11.7063 29.2924C6.63093 24.3772 2.75993 18.4153 0.380445 11.8489C-0.547151 9.28552 0.285635 6.5305 2.18183 4.68884L4.83137 2.11549H4.8288ZM28.1878 2.08812C28.1878 1.75809 28.3228 1.44158 28.5631 1.20822C28.8034 0.974854 29.1292 0.843752 29.469 0.843752H39.7187C40.0585 0.843752 40.3844 0.974854 40.6247 1.20822C40.8649 1.44158 40.9999 1.75809 40.9999 2.08812V12.043C40.9999 12.3731 40.8649 12.6896 40.6247 12.9229C40.3844 13.1563 40.0585 13.2874 39.7187 13.2874C39.3789 13.2874 39.053 13.1563 38.8128 12.9229C38.5725 12.6896 38.4375 12.3731 38.4375 12.043V5.09201L27.8137 15.4128C27.5731 15.6464 27.2468 15.7777 26.9066 15.7777C26.5664 15.7777 26.2401 15.6464 25.9995 15.4128C25.7589 15.1791 25.6238 14.8622 25.6238 14.5318C25.6238 14.2013 25.7589 13.8844 25.9995 13.6507L36.6259 3.33248H29.469C29.1292 3.33248 28.8034 3.20138 28.5631 2.96801C28.3228 2.73465 28.1878 2.41814 28.1878 2.08812Z" fill="white"/>
</svg>
