<svg width="28" height="20" viewBox="0 0 28 20" fill="none" xmlns="http://www.w3.org/2000/svg">
<path fill-rule="evenodd" clip-rule="evenodd" d="M2.03421 1.7819C3.33711 0.687674 5.10399 0.0729698 6.94629 0.0729698C8.78859 0.0729698 10.5555 0.687674 11.8584 1.7819L13.8941 3.49063L15.9298 1.7819C16.5707 1.22443 17.3373 0.779771 18.185 0.47387C19.0326 0.16797 19.9443 0.00695497 20.8668 0.000220378C21.7894 -0.00651421 22.7042 0.141167 23.5581 0.434646C24.412 0.728125 25.1877 1.16152 25.84 1.70956C26.4924 2.25759 27.0083 2.90928 27.3576 3.6266C27.707 4.34392 27.8827 5.11251 27.8747 5.88751C27.8667 6.66252 27.675 7.42842 27.3109 8.14054C26.9468 8.85265 26.4175 9.49671 25.7539 10.0351L13.8941 20L2.03421 10.0351C0.731707 8.94057 0 7.45623 0 5.90852C0 4.36081 0.731707 2.87647 2.03421 1.7819Z" fill="white"/>
</svg>
