<svg width="41" height="41" viewBox="0 0 41 41" fill="none" xmlns="http://www.w3.org/2000/svg">
<path d="M34.4409 23.8167H18.7169L19.1987 23.3668L23.3111 19.5264C24.9721 20.3076 26.8022 20.724 28.6618 20.744C30.5335 20.7486 32.3703 20.2703 33.9694 19.3618C38.8321 16.6127 41.4378 10.2491 40.9396 2.33869C40.9162 1.96401 40.7462 1.6104 40.462 1.34501C40.1778 1.07962 39.7992 0.920921 39.3979 0.89904C30.9271 0.435748 24.1127 2.86707 21.1688 7.40809C19.2499 10.3659 19.2007 13.9382 20.9904 17.3631L18.0404 20.118L15.5372 17.7805C16.7673 15.2438 16.6791 12.6115 15.2523 10.4137C13.0239 6.96969 7.91511 5.13375 1.58451 5.48027C1.18398 5.50255 0.806093 5.66118 0.522371 5.92613C0.238649 6.19108 0.068781 6.54397 0.0449153 6.918C-0.328196 12.8278 1.63986 17.5986 5.32998 19.6815C6.56452 20.3854 7.98363 20.7565 9.43011 20.7536C10.7424 20.7414 12.0368 20.4679 13.2268 19.9514L15.7197 22.2851L14.0797 23.8167H4.91997C4.485 23.8167 4.06785 23.978 3.76028 24.2652C3.45271 24.5525 3.27992 24.942 3.27992 25.3482C3.27992 25.7544 3.45271 26.1439 3.76028 26.4312C4.06785 26.7184 4.485 26.8797 4.91997 26.8797H6.88598L9.59411 38.2648C9.75286 38.9467 10.1575 39.557 10.7404 39.9937C11.3233 40.4303 12.0491 40.6668 12.7963 40.6636H26.5666C27.3138 40.6668 28.0396 40.4303 28.6225 39.9937C29.2054 39.557 29.6101 38.9467 29.7688 38.2648L32.4769 26.8797H34.4409C34.8759 26.8797 35.293 26.7184 35.6006 26.4312C35.9081 26.1439 36.0809 25.7544 36.0809 25.3482C36.0809 24.942 35.9081 24.5525 35.6006 24.2652C35.293 23.978 34.8759 23.8167 34.4409 23.8167ZM23.9856 8.99515C26.1299 5.69085 31.21 3.8262 37.721 3.90852C37.805 9.99831 35.8124 14.7404 32.274 16.7352C29.9143 18.0753 27.0668 17.9872 24.2213 16.5093C22.6366 13.8616 22.5505 11.1987 23.9856 8.99515ZM12.3227 16.9458C10.4367 17.8896 8.56908 17.9336 7.02743 17.0606C4.66986 15.7263 3.31067 12.5809 3.27992 8.50123C7.6486 8.52995 11.0189 9.79921 12.4458 12.0008C13.3806 13.4405 13.3252 15.1845 12.3227 16.9458ZM26.5666 37.6005H12.7963L10.2501 26.8797H29.1107L26.5666 37.6005Z" fill="white"/>
</svg>
