<svg width="40" height="39" viewBox="0 0 40 39" fill="none" xmlns="http://www.w3.org/2000/svg">
<path d="M20.465 3.30051C20.1665 3.18684 19.8335 3.18684 19.535 3.30051L4.615 8.97146L10.625 11.2546L26.01 5.40781L20.465 3.30051ZM29.375 6.68835L13.99 12.5351L20 14.8182L35.385 8.97146L29.375 6.68835ZM37.5 10.7271L21.25 16.9041V35.7249L37.5 29.5479V10.7271ZM18.75 35.7273V16.9018L2.5 10.7271V29.5503L18.75 35.7273ZM18.6075 1.09343C19.5014 0.753689 20.4986 0.753689 21.3925 1.09343L39.215 7.8691C39.4467 7.95735 39.6453 8.10951 39.7852 8.30598C39.9251 8.50245 39.9999 8.73423 40 8.97146V29.5503C39.9997 30.025 39.8497 30.4888 39.5694 30.8818C39.2892 31.2747 38.8914 31.5789 38.4275 31.755L20.465 38.583C20.1665 38.6966 19.8335 38.6966 19.535 38.583L1.575 31.755C1.11063 31.5793 0.712356 31.2753 0.431605 30.8823C0.150854 30.4893 0.000515823 30.0253 0 29.5503L0 8.97146C5.80999e-05 8.73423 0.0748594 8.50245 0.214768 8.30598C0.354676 8.10951 0.553282 7.95735 0.785 7.8691L18.6075 1.09343Z" fill="white"/>
</svg>
