<svg width="28" height="28" viewBox="0 0 28 28" fill="none" xmlns="http://www.w3.org/2000/svg">
<path d="M26.4625 21.9127C26.4625 22.3627 26.3625 22.8252 26.15 23.2752C25.9375 23.7252 25.6625 24.1502 25.3 24.5502C24.6875 25.2252 24.0125 25.7127 23.25 26.0252C22.5 26.3377 21.6875 26.5002 20.8125 26.5002C19.5375 26.5002 18.175 26.2002 16.7375 25.5877C15.3 24.9752 13.8625 24.1502 12.4375 23.1127C11 22.0627 9.6375 20.9002 8.3375 19.6127C7.05 18.3127 5.8875 16.9502 4.85 15.5252C3.825 14.1002 3 12.6752 2.4 11.2627C1.8 9.83774 1.5 8.47524 1.5 7.17524C1.5 6.32524 1.65 5.51274 1.95 4.76274C2.25 4.00024 2.725 3.30024 3.3875 2.67524C4.1875 1.88774 5.0625 1.50024 5.9875 1.50024C6.3375 1.50024 6.6875 1.57524 7 1.72524C7.325 1.87524 7.6125 2.10024 7.8375 2.42524L10.7375 6.51274C10.9625 6.82524 11.125 7.11274 11.2375 7.38774C11.35 7.65024 11.4125 7.91274 11.4125 8.15024C11.4125 8.45024 11.325 8.75024 11.15 9.03774C10.9875 9.32524 10.75 9.62524 10.45 9.92524L9.5 10.9127C9.3625 11.0502 9.3 11.2127 9.3 11.4127C9.3 11.5127 9.3125 11.6002 9.3375 11.7002C9.375 11.8002 9.4125 11.8752 9.4375 11.9502C9.6625 12.3627 10.05 12.9002 10.6 13.5502C11.1625 14.2002 11.7625 14.8627 12.4125 15.5252C13.0875 16.1877 13.7375 16.8002 14.4 17.3627C15.05 17.9127 15.5875 18.2877 16.0125 18.5127C16.075 18.5377 16.15 18.5752 16.2375 18.6127C16.3375 18.6502 16.4375 18.6627 16.55 18.6627C16.7625 18.6627 16.925 18.5877 17.0625 18.4502L18.0125 17.5127C18.325 17.2002 18.625 16.9627 18.9125 16.8127C19.2 16.6377 19.4875 16.5502 19.8 16.5502C20.0375 16.5502 20.2875 16.6002 20.5625 16.7127C20.8375 16.8252 21.125 16.9877 21.4375 17.2002L25.575 20.1377C25.9 20.3627 26.125 20.6252 26.2625 20.9377C26.3875 21.2502 26.4625 21.5627 26.4625 21.9127Z" stroke="#11A500" stroke-width="2" stroke-miterlimit="10"/>
<path d="M22.125 10.2506C22.125 9.50061 21.5375 8.35061 20.6625 7.41311C19.8625 6.55061 18.8 5.87561 17.75 5.87561" stroke="#11A500" stroke-width="2" stroke-linecap="round" stroke-linejoin="round"/>
<path d="M26.5 10.2505C26.5 5.41299 22.5875 1.50049 17.75 1.50049" stroke="#11A500" stroke-width="2" stroke-linecap="round" stroke-linejoin="round"/>
</svg>
